<?xml version="1.0" standalone="no"?><!DOCTYPE svg PUBLIC "-//W3C//DTD SVG 1.1//EN" "http://www.w3.org/Graphics/SVG/1.1/DTD/svg11.dtd"><svg t="1552030484134" class="icon" style="" viewBox="0 0 1024 1024" version="1.1" xmlns="http://www.w3.org/2000/svg" p-id="3264" xmlns:xlink="http://www.w3.org/1999/xlink" width="30" height="30"><defs><style type="text/css"></style></defs><path d="M70.4 153.6c0-45.9264 37.2736-83.2 83.2-83.2h716.8c45.9264 0 83.2 37.2736 83.2 83.2v716.8c0 45.9264-37.2736 83.2-83.2 83.2H153.6A83.2 83.2 0 0 1 70.4 870.4V153.6z m64 0v716.8c0 10.5984 8.6016 19.2 19.2 19.2h716.8a19.2 19.2 0 0 0 19.2-19.2V153.6A19.2 19.2 0 0 0 870.4 134.4H153.6A19.2 19.2 0 0 0 134.4 153.6z" fill="#5A5A68" p-id="3265"></path><path d="M307.2 544a32 32 0 1 1 0-64h409.6a32 32 0 1 1 0 64H307.2z" fill="#5A5A68" p-id="3266"></path><path d="M480 307.2a32 32 0 1 1 64 0v409.6a32 32 0 1 1-64 0V307.2z" fill="#5A5A68" p-id="3267"></path></svg>